<?xml version="1.0" encoding="UTF-8" standalone="no"?>
<!-- Created with Inkscape (http://www.inkscape.org/) -->

<svg
   version="1.1"
   id="svg1"
   width="322.10471"
   height="65.009644"
   viewBox="0 0 322.10471 65.009643"
   sodipodi:docname="eu-funded-en.svg"
   xml:space="preserve"
   inkscape:version="1.4.2 (ebf0e940d0, 2025-05-08)"
   xmlns:inkscape="http://www.inkscape.org/namespaces/inkscape"
   xmlns:sodipodi="http://sodipodi.sourceforge.net/DTD/sodipodi-0.dtd"
   xmlns:xlink="http://www.w3.org/1999/xlink"
   xmlns="http://www.w3.org/2000/svg"
   xmlns:svg="http://www.w3.org/2000/svg"><defs
     id="defs1"><g
       id="s"><g
         id="c"><path
           id="t"
           d="M 0,0 V 1 H 0.5 Z"
           transform="rotate(18,3.1568758,-0.5)" /><use
           xlink:href="#t"
           transform="scale(-1,1)"
           id="use1" /></g><g
         id="a"><use
           xlink:href="#c"
           transform="rotate(72)"
           id="use2" /><use
           xlink:href="#c"
           transform="rotate(144)"
           id="use3" /></g><use
         xlink:href="#a"
         transform="scale(-1,1)"
         id="use4" /></g></defs><sodipodi:namedview
     id="namedview1"
     pagecolor="#ffffff"
     bordercolor="#666666"
     borderopacity="1.0"
     inkscape:showpageshadow="2"
     inkscape:pageopacity="0.0"
     inkscape:pagecheckerboard="0"
     inkscape:deskcolor="#d1d1d1"
     inkscape:zoom="3.5415604"
     inkscape:cx="163.2049"
     inkscape:cy="38.683514"
     inkscape:window-width="1916"
     inkscape:window-height="1031"
     inkscape:window-x="0"
     inkscape:window-y="24"
     inkscape:window-maximized="1"
     inkscape:current-layer="g1"><inkscape:page
       x="0"
       y="0"
       width="322.10471"
       height="65.009644"
       id="page2"
       margin="0"
       bleed="0" /></sodipodi:namedview><g
     inkscape:groupmode="layer"
     inkscape:label="logo"
     id="g1"
     transform="translate(-14.865299,-4.4551797)"><g
       id="g24"
       transform="matrix(0.12038822,0,0,0.12038822,14.865299,4.4551797)"
       inkscape:label="flag"
       style="display:inline"><rect
         fill="#003399"
         width="810"
         height="540"
         id="rect4"
         x="0"
         y="0" /><g
         fill="#ffcc00"
         transform="matrix(30,0,0,30,405,270)"
         id="g12"><g
           id="use5"
           transform="translate(0,-6)"><g
             id="g128"><path
               id="path127"
               d="M 0,0 V 1 H 0.5 Z"
               transform="rotate(18,3.1568758,-0.5)" /><path
               id="use128"
               d="M 0,-1 0.30901699,-0.0489435 -0.16651127,0.105565 Z" /></g><g
             id="g130"><g
               id="use129"
               transform="rotate(72)"><path
                 id="path131"
                 d="M 0,0 V 1 H 0.5 Z"
                 transform="rotate(18,3.1568758,-0.5)" /><path
                 id="use132"
                 d="M 0,-1 0.30901699,-0.0489435 -0.16651127,0.105565 Z" /></g><g
               id="use130"
               transform="rotate(144)"><path
                 id="path132"
                 d="M 0,0 V 1 H 0.5 Z"
                 transform="rotate(18,3.1568758,-0.5)" /><path
                 id="use133"
                 d="M 0,-1 0.30901699,-0.0489435 -0.16651127,0.105565 Z" /></g></g><g
             id="use131"
             transform="scale(-1,1)"><g
               id="use134"
               transform="rotate(72)"><path
                 id="path135"
                 d="M 0,0 V 1 H 0.5 Z"
                 transform="rotate(18,3.1568758,-0.5)" /><path
                 id="use136"
                 d="M 0,-1 0.30901699,-0.0489435 -0.16651127,0.105565 Z" /></g><g
               id="use135"
               transform="rotate(144)"><path
                 id="path136"
                 d="M 0,0 V 1 H 0.5 Z"
                 transform="rotate(18,3.1568758,-0.5)" /><path
                 id="use137"
                 d="M 0,-1 0.30901699,-0.0489435 -0.16651127,0.105565 Z" /></g></g></g><g
           id="use6"
           transform="translate(0,6)"><g
             id="g118"><path
               id="path117"
               d="M 0,0 V 1 H 0.5 Z"
               transform="rotate(18,3.1568758,-0.5)" /><path
               id="use118"
               d="M 0,-1 0.30901699,-0.0489435 -0.16651127,0.105565 Z" /></g><g
             id="g120"><g
               id="use119"
               transform="rotate(72)"><path
                 id="path121"
                 d="M 0,0 V 1 H 0.5 Z"
                 transform="rotate(18,3.1568758,-0.5)" /><path
                 id="use122"
                 d="M 0,-1 0.30901699,-0.0489435 -0.16651127,0.105565 Z" /></g><g
               id="use120"
               transform="rotate(144)"><path
                 id="path122"
                 d="M 0,0 V 1 H 0.5 Z"
                 transform="rotate(18,3.1568758,-0.5)" /><path
                 id="use123"
                 d="M 0,-1 0.30901699,-0.0489435 -0.16651127,0.105565 Z" /></g></g><g
             id="use121"
             transform="scale(-1,1)"><g
               id="use124"
               transform="rotate(72)"><path
                 id="path125"
                 d="M 0,0 V 1 H 0.5 Z"
                 transform="rotate(18,3.1568758,-0.5)" /><path
                 id="use126"
                 d="M 0,-1 0.30901699,-0.0489435 -0.16651127,0.105565 Z" /></g><g
               id="use125"
               transform="rotate(144)"><path
                 id="path126"
                 d="M 0,0 V 1 H 0.5 Z"
                 transform="rotate(18,3.1568758,-0.5)" /><path
                 id="use127"
                 d="M 0,-1 0.30901699,-0.0489435 -0.16651127,0.105565 Z" /></g></g></g><g
           id="l"><g
             id="use7"
             transform="translate(-6)"><g
               id="g108"><path
                 id="path107"
                 d="M 0,0 V 1 H 0.5 Z"
                 transform="rotate(18,3.1568758,-0.5)" /><path
                 id="use108"
                 d="M 0,-1 0.30901699,-0.0489435 -0.16651127,0.105565 Z" /></g><g
               id="g110"><g
                 id="use109"
                 transform="rotate(72)"><path
                   id="path111"
                   d="M 0,0 V 1 H 0.5 Z"
                   transform="rotate(18,3.1568758,-0.5)" /><path
                   id="use112"
                   d="M 0,-1 0.30901699,-0.0489435 -0.16651127,0.105565 Z" /></g><g
                 id="use110"
                 transform="rotate(144)"><path
                   id="path112"
                   d="M 0,0 V 1 H 0.5 Z"
                   transform="rotate(18,3.1568758,-0.5)" /><path
                   id="use113"
                   d="M 0,-1 0.30901699,-0.0489435 -0.16651127,0.105565 Z" /></g></g><g
               id="use111"
               transform="scale(-1,1)"><g
                 id="use114"
                 transform="rotate(72)"><path
                   id="path115"
                   d="M 0,0 V 1 H 0.5 Z"
                   transform="rotate(18,3.1568758,-0.5)" /><path
                   id="use116"
                   d="M 0,-1 0.30901699,-0.0489435 -0.16651127,0.105565 Z" /></g><g
                 id="use115"
                 transform="rotate(144)"><path
                   id="path116"
                   d="M 0,0 V 1 H 0.5 Z"
                   transform="rotate(18,3.1568758,-0.5)" /><path
                   id="use117"
                   d="M 0,-1 0.30901699,-0.0489435 -0.16651127,0.105565 Z" /></g></g></g><g
             id="use8"
             transform="rotate(-144,-2.3441661,-2.1106967)"><g
               id="g98"><path
                 id="path97"
                 d="M 0,0 V 1 H 0.5 Z"
                 transform="rotate(18,3.1568758,-0.5)" /><path
                 id="use98"
                 d="M 0,-1 0.30901699,-0.0489435 -0.16651127,0.105565 Z" /></g><g
               id="g100"><g
                 id="use99"
                 transform="rotate(72)"><path
                   id="path101"
                   d="M 0,0 V 1 H 0.5 Z"
                   transform="rotate(18,3.1568758,-0.5)" /><path
                   id="use102"
                   d="M 0,-1 0.30901699,-0.0489435 -0.16651127,0.105565 Z" /></g><g
                 id="use100"
                 transform="rotate(144)"><path
                   id="path102"
                   d="M 0,0 V 1 H 0.5 Z"
                   transform="rotate(18,3.1568758,-0.5)" /><path
                   id="use103"
                   d="M 0,-1 0.30901699,-0.0489435 -0.16651127,0.105565 Z" /></g></g><g
               id="use101"
               transform="scale(-1,1)"><g
                 id="use104"
                 transform="rotate(72)"><path
                   id="path105"
                   d="M 0,0 V 1 H 0.5 Z"
                   transform="rotate(18,3.1568758,-0.5)" /><path
                   id="use106"
                   d="M 0,-1 0.30901699,-0.0489435 -0.16651127,0.105565 Z" /></g><g
                 id="use105"
                 transform="rotate(144)"><path
                   id="path106"
                   d="M 0,0 V 1 H 0.5 Z"
                   transform="rotate(18,3.1568758,-0.5)" /><path
                   id="use107"
                   d="M 0,-1 0.30901699,-0.0489435 -0.16651127,0.105565 Z" /></g></g></g><g
             id="use9"
             transform="rotate(144,-2.1106967,-2.3441661)"><g
               id="g88"><path
                 id="path87"
                 d="M 0,0 V 1 H 0.5 Z"
                 transform="rotate(18,3.1568758,-0.5)" /><path
                 id="use88"
                 d="M 0,-1 0.30901699,-0.0489435 -0.16651127,0.105565 Z" /></g><g
               id="g90"><g
                 id="use89"
                 transform="rotate(72)"><path
                   id="path91"
                   d="M 0,0 V 1 H 0.5 Z"
                   transform="rotate(18,3.1568758,-0.5)" /><path
                   id="use92"
                   d="M 0,-1 0.30901699,-0.0489435 -0.16651127,0.105565 Z" /></g><g
                 id="use90"
                 transform="rotate(144)"><path
                   id="path92"
                   d="M 0,0 V 1 H 0.5 Z"
                   transform="rotate(18,3.1568758,-0.5)" /><path
                   id="use93"
                   d="M 0,-1 0.30901699,-0.0489435 -0.16651127,0.105565 Z" /></g></g><g
               id="use91"
               transform="scale(-1,1)"><g
                 id="use94"
                 transform="rotate(72)"><path
                   id="path95"
                   d="M 0,0 V 1 H 0.5 Z"
                   transform="rotate(18,3.1568758,-0.5)" /><path
                   id="use96"
                   d="M 0,-1 0.30901699,-0.0489435 -0.16651127,0.105565 Z" /></g><g
                 id="use95"
                 transform="rotate(144)"><path
                   id="path96"
                   d="M 0,0 V 1 H 0.5 Z"
                   transform="rotate(18,3.1568758,-0.5)" /><path
                   id="use97"
                   d="M 0,-1 0.30901699,-0.0489435 -0.16651127,0.105565 Z" /></g></g></g><g
             id="use10"
             transform="rotate(72,-4.6626491,-2.0759451)"><g
               id="g78"><path
                 id="path77"
                 d="M 0,0 V 1 H 0.5 Z"
                 transform="rotate(18,3.1568758,-0.5)" /><path
                 id="use78"
                 d="M 0,-1 0.30901699,-0.0489435 -0.16651127,0.105565 Z" /></g><g
               id="g80"><g
                 id="use79"
                 transform="rotate(72)"><path
                   id="path81"
                   d="M 0,0 V 1 H 0.5 Z"
                   transform="rotate(18,3.1568758,-0.5)" /><path
                   id="use82"
                   d="M 0,-1 0.30901699,-0.0489435 -0.16651127,0.105565 Z" /></g><g
                 id="use80"
                 transform="rotate(144)"><path
                   id="path82"
                   d="M 0,0 V 1 H 0.5 Z"
                   transform="rotate(18,3.1568758,-0.5)" /><path
                   id="use83"
                   d="M 0,-1 0.30901699,-0.0489435 -0.16651127,0.105565 Z" /></g></g><g
               id="use81"
               transform="scale(-1,1)"><g
                 id="use84"
                 transform="rotate(72)"><path
                   id="path85"
                   d="M 0,0 V 1 H 0.5 Z"
                   transform="rotate(18,3.1568758,-0.5)" /><path
                   id="use86"
                   d="M 0,-1 0.30901699,-0.0489435 -0.16651127,0.105565 Z" /></g><g
                 id="use85"
                 transform="rotate(144)"><path
                   id="path86"
                   d="M 0,0 V 1 H 0.5 Z"
                   transform="rotate(18,3.1568758,-0.5)" /><path
                   id="use87"
                   d="M 0,-1 0.30901699,-0.0489435 -0.16651127,0.105565 Z" /></g></g></g><g
             id="use11"
             transform="rotate(72,-5.0759451,0.53350333)"><g
               id="g68"><path
                 id="path67"
                 d="M 0,0 V 1 H 0.5 Z"
                 transform="rotate(18,3.1568758,-0.5)" /><path
                 id="use68"
                 d="M 0,-1 0.30901699,-0.0489435 -0.16651127,0.105565 Z" /></g><g
               id="g70"><g
                 id="use69"
                 transform="rotate(72)"><path
                   id="path71"
                   d="M 0,0 V 1 H 0.5 Z"
                   transform="rotate(18,3.1568758,-0.5)" /><path
                   id="use72"
                   d="M 0,-1 0.30901699,-0.0489435 -0.16651127,0.105565 Z" /></g><g
                 id="use70"
                 transform="rotate(144)"><path
                   id="path72"
                   d="M 0,0 V 1 H 0.5 Z"
                   transform="rotate(18,3.1568758,-0.5)" /><path
                   id="use73"
                   d="M 0,-1 0.30901699,-0.0489435 -0.16651127,0.105565 Z" /></g></g><g
               id="use71"
               transform="scale(-1,1)"><g
                 id="use74"
                 transform="rotate(72)"><path
                   id="path75"
                   d="M 0,0 V 1 H 0.5 Z"
                   transform="rotate(18,3.1568758,-0.5)" /><path
                   id="use76"
                   d="M 0,-1 0.30901699,-0.0489435 -0.16651127,0.105565 Z" /></g><g
                 id="use75"
                 transform="rotate(144)"><path
                   id="path76"
                   d="M 0,0 V 1 H 0.5 Z"
                   transform="rotate(18,3.1568758,-0.5)" /><path
                   id="use77"
                   d="M 0,-1 0.30901699,-0.0489435 -0.16651127,0.105565 Z" /></g></g></g></g><g
           id="use12"
           transform="scale(-1,1)"><g
             id="use13"
             transform="translate(-6)"><g
               id="g18"><path
                 id="path17"
                 d="M 0,0 V 1 H 0.5 Z"
                 transform="rotate(18,3.1568758,-0.5)" /><path
                 id="use18"
                 d="M 0,-1 0.30901699,-0.0489435 -0.16651127,0.105565 Z" /></g><g
               id="g20"><g
                 id="use19"
                 transform="rotate(72)"><path
                   id="path21"
                   d="M 0,0 V 1 H 0.5 Z"
                   transform="rotate(18,3.1568758,-0.5)" /><path
                   id="use22"
                   d="M 0,-1 0.30901699,-0.0489435 -0.16651127,0.105565 Z" /></g><g
                 id="use20"
                 transform="rotate(144)"><path
                   id="path22"
                   d="M 0,0 V 1 H 0.5 Z"
                   transform="rotate(18,3.1568758,-0.5)" /><path
                   id="use23"
                   d="M 0,-1 0.30901699,-0.0489435 -0.16651127,0.105565 Z" /></g></g><g
               id="use21"
               transform="scale(-1,1)"><g
                 id="use24"
                 transform="rotate(72)"><path
                   id="path25"
                   d="M 0,0 V 1 H 0.5 Z"
                   transform="rotate(18,3.1568758,-0.5)" /><path
                   id="use26"
                   d="M 0,-1 0.30901699,-0.0489435 -0.16651127,0.105565 Z" /></g><g
                 id="use25"
                 transform="rotate(144)"><path
                   id="path26"
                   d="M 0,0 V 1 H 0.5 Z"
                   transform="rotate(18,3.1568758,-0.5)" /><path
                   id="use27"
                   d="M 0,-1 0.30901699,-0.0489435 -0.16651127,0.105565 Z" /></g></g></g><g
             id="use14"
             transform="rotate(-144,-2.3441661,-2.1106967)"><g
               id="g28"><path
                 id="path27"
                 d="M 0,0 V 1 H 0.5 Z"
                 transform="rotate(18,3.1568758,-0.5)" /><path
                 id="use28"
                 d="M 0,-1 0.30901699,-0.0489435 -0.16651127,0.105565 Z" /></g><g
               id="g30"><g
                 id="use29"
                 transform="rotate(72)"><path
                   id="path31"
                   d="M 0,0 V 1 H 0.5 Z"
                   transform="rotate(18,3.1568758,-0.5)" /><path
                   id="use32"
                   d="M 0,-1 0.30901699,-0.0489435 -0.16651127,0.105565 Z" /></g><g
                 id="use30"
                 transform="rotate(144)"><path
                   id="path32"
                   d="M 0,0 V 1 H 0.5 Z"
                   transform="rotate(18,3.1568758,-0.5)" /><path
                   id="use33"
                   d="M 0,-1 0.30901699,-0.0489435 -0.16651127,0.105565 Z" /></g></g><g
               id="use31"
               transform="scale(-1,1)"><g
                 id="use34"
                 transform="rotate(72)"><path
                   id="path35"
                   d="M 0,0 V 1 H 0.5 Z"
                   transform="rotate(18,3.1568758,-0.5)" /><path
                   id="use36"
                   d="M 0,-1 0.30901699,-0.0489435 -0.16651127,0.105565 Z" /></g><g
                 id="use35"
                 transform="rotate(144)"><path
                   id="path36"
                   d="M 0,0 V 1 H 0.5 Z"
                   transform="rotate(18,3.1568758,-0.5)" /><path
                   id="use37"
                   d="M 0,-1 0.30901699,-0.0489435 -0.16651127,0.105565 Z" /></g></g></g><g
             id="use15"
             transform="rotate(144,-2.1106967,-2.3441661)"><g
               id="g38"><path
                 id="path37"
                 d="M 0,0 V 1 H 0.5 Z"
                 transform="rotate(18,3.1568758,-0.5)" /><path
                 id="use38"
                 d="M 0,-1 0.30901699,-0.0489435 -0.16651127,0.105565 Z" /></g><g
               id="g40"><g
                 id="use39"
                 transform="rotate(72)"><path
                   id="path41"
                   d="M 0,0 V 1 H 0.5 Z"
                   transform="rotate(18,3.1568758,-0.5)" /><path
                   id="use42"
                   d="M 0,-1 0.30901699,-0.0489435 -0.16651127,0.105565 Z" /></g><g
                 id="use40"
                 transform="rotate(144)"><path
                   id="path42"
                   d="M 0,0 V 1 H 0.5 Z"
                   transform="rotate(18,3.1568758,-0.5)" /><path
                   id="use43"
                   d="M 0,-1 0.30901699,-0.0489435 -0.16651127,0.105565 Z" /></g></g><g
               id="use41"
               transform="scale(-1,1)"><g
                 id="use44"
                 transform="rotate(72)"><path
                   id="path45"
                   d="M 0,0 V 1 H 0.5 Z"
                   transform="rotate(18,3.1568758,-0.5)" /><path
                   id="use46"
                   d="M 0,-1 0.30901699,-0.0489435 -0.16651127,0.105565 Z" /></g><g
                 id="use45"
                 transform="rotate(144)"><path
                   id="path46"
                   d="M 0,0 V 1 H 0.5 Z"
                   transform="rotate(18,3.1568758,-0.5)" /><path
                   id="use47"
                   d="M 0,-1 0.30901699,-0.0489435 -0.16651127,0.105565 Z" /></g></g></g><g
             id="use16"
             transform="rotate(72,-4.6626491,-2.0759451)"><g
               id="g48"><path
                 id="path47"
                 d="M 0,0 V 1 H 0.5 Z"
                 transform="rotate(18,3.1568758,-0.5)" /><path
                 id="use48"
                 d="M 0,-1 0.30901699,-0.0489435 -0.16651127,0.105565 Z" /></g><g
               id="g50"><g
                 id="use49"
                 transform="rotate(72)"><path
                   id="path51"
                   d="M 0,0 V 1 H 0.5 Z"
                   transform="rotate(18,3.1568758,-0.5)" /><path
                   id="use52"
                   d="M 0,-1 0.30901699,-0.0489435 -0.16651127,0.105565 Z" /></g><g
                 id="use50"
                 transform="rotate(144)"><path
                   id="path52"
                   d="M 0,0 V 1 H 0.5 Z"
                   transform="rotate(18,3.1568758,-0.5)" /><path
                   id="use53"
                   d="M 0,-1 0.30901699,-0.0489435 -0.16651127,0.105565 Z" /></g></g><g
               id="use51"
               transform="scale(-1,1)"><g
                 id="use54"
                 transform="rotate(72)"><path
                   id="path55"
                   d="M 0,0 V 1 H 0.5 Z"
                   transform="rotate(18,3.1568758,-0.5)" /><path
                   id="use56"
                   d="M 0,-1 0.30901699,-0.0489435 -0.16651127,0.105565 Z" /></g><g
                 id="use55"
                 transform="rotate(144)"><path
                   id="path56"
                   d="M 0,0 V 1 H 0.5 Z"
                   transform="rotate(18,3.1568758,-0.5)" /><path
                   id="use57"
                   d="M 0,-1 0.30901699,-0.0489435 -0.16651127,0.105565 Z" /></g></g></g><g
             id="use17"
             transform="rotate(72,-5.0759451,0.53350333)"><g
               id="g58"><path
                 id="path57"
                 d="M 0,0 V 1 H 0.5 Z"
                 transform="rotate(18,3.1568758,-0.5)" /><path
                 id="use58"
                 d="M 0,-1 0.30901699,-0.0489435 -0.16651127,0.105565 Z" /></g><g
               id="g60"><g
                 id="use59"
                 transform="rotate(72)"><path
                   id="path61"
                   d="M 0,0 V 1 H 0.5 Z"
                   transform="rotate(18,3.1568758,-0.5)" /><path
                   id="use62"
                   d="M 0,-1 0.30901699,-0.0489435 -0.16651127,0.105565 Z" /></g><g
                 id="use60"
                 transform="rotate(144)"><path
                   id="path62"
                   d="M 0,0 V 1 H 0.5 Z"
                   transform="rotate(18,3.1568758,-0.5)" /><path
                   id="use63"
                   d="M 0,-1 0.30901699,-0.0489435 -0.16651127,0.105565 Z" /></g></g><g
               id="use61"
               transform="scale(-1,1)"><g
                 id="use64"
                 transform="rotate(72)"><path
                   id="path65"
                   d="M 0,0 V 1 H 0.5 Z"
                   transform="rotate(18,3.1568758,-0.5)" /><path
                   id="use66"
                   d="M 0,-1 0.30901699,-0.0489435 -0.16651127,0.105565 Z" /></g><g
                 id="use65"
                 transform="rotate(144)"><path
                   id="path66"
                   d="M 0,0 V 1 H 0.5 Z"
                   transform="rotate(18,3.1568758,-0.5)" /><path
                   id="use67"
                   d="M 0,-1 0.30901699,-0.0489435 -0.16651127,0.105565 Z" /></g></g></g></g></g></g><g
       id="text24"
       style="font-weight:bold;font-size:24px;line-height:1.15;font-family:'Roboto Mono for Powerline';-inkscape-font-specification:'Roboto Mono for Powerline Bold';letter-spacing:0px;word-spacing:0px;fill:#003399"
       inkscape:label="text"
       aria-label="Co-funded by&#10;the European Union"><path
         style="line-height:1.1;font-family:'Nimbus Sans';-inkscape-font-specification:'Nimbus Sans Bold';letter-spacing:-0.8px;word-spacing:-0.15px"
         d="m 140.72605,17.867986 c -0.12,-1.512 -0.432,-2.472 -1.176,-3.456 -1.344,-1.776 -3.504,-2.76 -6.12,-2.76 -4.944,0 -8.016,3.528 -8.016,9.192 0,5.64 3.048,9.144 7.92,9.144 4.368,0 7.248,-2.52 7.464,-6.528 h -3.504 c -0.24,2.232 -1.632,3.504 -3.864,3.504 -2.784,0 -4.416,-2.256 -4.416,-6.072 0,-3.864 1.704,-6.168 4.536,-6.168 2.088,0 3.264,1.008 3.744,3.144 z m 7.40799,-1.608 c -3.96,0 -6.384,2.616 -6.384,6.864 0,4.272 2.424,6.864 6.408,6.864 3.96,0 6.408,-2.592 6.408,-6.768 0,-4.392 -2.376,-6.96 -6.432,-6.96 z m 0.024,2.712 c 1.848,0 3.048,1.656 3.048,4.2 0,2.424 -1.248,4.104 -3.048,4.104 -1.824,0 -3.048,-1.656 -3.048,-4.152 0,-2.496 1.224,-4.152 3.048,-4.152 z m 13.768,2.256 h -6.528 v 3.24 h 6.528 z m 7.57599,-4.488 h -1.992 v -1.272 c 0,-0.672 0.288,-1.008 0.912,-1.008 0.312,0 0.624,0.024 0.96,0.072 v -2.52 c -0.72,-0.048 -1.416,-0.072 -1.92,-0.072 -2.232,0 -3.312,1.056 -3.312,3.24 v 1.56 h -1.824 v 2.232 h 1.824 v 10.464 h 3.36 v -10.464 h 1.992 z m 12.64002,12.696 v -12.96 h -3.36 v 8.112 c 0,1.536 -1.056,2.544 -2.712,2.544 -1.44,0 -2.16,-0.768 -2.16,-2.328 v -8.328 h -3.36 v 9.024 c 0,2.88 1.56,4.488 4.344,4.488 1.752,0 2.928,-0.624 3.888,-2.088 v 1.536 z m 2.392,-12.96 v 12.96 h 3.36 v -7.776 c 0,-1.536 1.056,-2.544 2.712,-2.544 1.44,0 2.16,0.792 2.16,2.328 v 7.992 h 3.36 v -8.688 c 0,-2.88 -1.56,-4.488 -4.344,-4.488 -1.752,0 -2.928,0.624 -3.888,2.088 v -1.872 z m 22.072,12.96 h 3.36 v -17.496 h -3.36 v 6.216 c -0.84,-1.296 -1.944,-1.896 -3.576,-1.896 -3.096,0 -5.448,2.976 -5.448,6.888 0,1.752 0.528,3.528 1.392,4.776 0.888,1.272 2.472,2.064 4.056,2.064 1.632,0 2.736,-0.576 3.576,-1.872 z m -2.832,-10.368 c 1.704,0 2.832,1.632 2.832,4.128 0,2.352 -1.152,3.984 -2.832,3.984 -1.68,0 -2.832,-1.656 -2.832,-4.032 0,-2.424 1.152,-4.08 2.832,-4.08 z m 19.552,4.944 c 0.024,-0.288 0.024,-0.408 0.024,-0.576 0,-1.296 -0.192,-2.496 -0.504,-3.408 -0.864,-2.352 -2.952,-3.768 -5.568,-3.768 -3.72,0 -6,2.688 -6,7.032 0,4.152 2.256,6.696 5.928,6.696 2.904,0 5.256,-1.632 6,-4.2 h -3.312 c -0.408,1.032 -1.344,1.632 -2.568,1.632 -0.96,0 -1.728,-0.408 -2.208,-1.128 -0.312,-0.48 -0.432,-1.056 -0.48,-2.28 z m -8.64,-2.232 c 0.216,-1.992 1.056,-2.952 2.544,-2.952 1.536,0 2.448,1.032 2.616,2.952 z m 18.32799,7.656 h 3.36 v -17.496 h -3.36 v 6.216 c -0.84,-1.296 -1.944,-1.896 -3.576,-1.896 -3.096,0 -5.448,2.976 -5.448,6.888 0,1.752 0.528,3.528 1.392,4.776 0.888,1.272 2.472,2.064 4.056,2.064 1.632,0 2.736,-0.576 3.576,-1.872 z m -2.832,-10.368 c 1.704,0 2.832,1.632 2.832,4.128 0,2.352 -1.152,3.984 -2.832,3.984 -1.68,0 -2.832,-1.656 -2.832,-4.032 0,-2.424 1.152,-4.08 2.832,-4.08 z m 14.114,-7.128 v 17.496 h 3.36 v -1.32 c 0.816,1.272 1.944,1.872 3.576,1.872 3.096,0 5.448,-2.952 5.448,-6.864 0,-1.752 -0.528,-3.528 -1.392,-4.776 -0.888,-1.272 -2.472,-2.088 -4.056,-2.088 -1.632,0 -2.76,0.6 -3.576,1.896 v -6.216 z m 6.192,7.128 c 1.656,0 2.832,1.68 2.832,4.08 0,2.376 -1.152,4.032 -2.832,4.032 -1.704,0 -2.832,-1.608 -2.832,-4.104 0,-2.376 1.152,-4.008 2.832,-4.008 z m 15.20801,-2.592 -2.688,9.432 -2.856,-9.432 h -3.696 l 4.824,13.488 c 0,1.344 -0.84,2.256 -2.088,2.256 -0.264,0 -0.48,-0.048 -0.888,-0.144 v 2.52 c 0.504,0.072 0.792,0.096 1.2,0.096 0.864,0 1.824,-0.168 2.424,-0.408 0.936,-0.384 1.344,-0.912 1.896,-2.472 l 5.328,-15.336 z"
         id="path2" /><path
         style="line-height:1.1;font-family:'Nimbus Sans';-inkscape-font-specification:'Nimbus Sans Bold';letter-spacing:-0.8px;word-spacing:-0.15px"
         d="m 131.58205,44.339985 h -1.872 v -3.48 h -3.36 v 3.48 h -1.656 v 2.232 h 1.656 v 7.968 c 0,2.04 1.08,3.048 3.288,3.048 0.768,0 1.32,-0.072 1.944,-0.264 v -2.352 c -0.336,0.048 -0.504,0.072 -0.768,0.072 -0.888,0 -1.104,-0.264 -1.104,-1.416 v -7.056 h 1.872 z m 1.52798,-4.8 v 17.496 h 3.36 v -7.776 c 0,-1.488 1.08,-2.544 2.592,-2.544 0.744,0 1.296,0.264 1.68,0.792 0.312,0.432 0.384,0.792 0.384,1.608 v 7.92 h 3.36 v -8.688 c 0,-1.608 -0.432,-2.76 -1.32,-3.504 -0.744,-0.624 -1.824,-0.984 -2.904,-0.984 -1.656,0 -2.856,0.648 -3.792,2.088 v -6.408 z m 24.832,12.072 c 0.024,-0.288 0.024,-0.408 0.024,-0.576 0,-1.296 -0.192,-2.496 -0.504,-3.408 -0.864,-2.352 -2.952,-3.768 -5.568,-3.768 -3.72,0 -6,2.688 -6,7.032 0,4.152 2.256,6.696 5.928,6.696 2.904,0 5.256,-1.632 6,-4.2 h -3.312 c -0.408,1.032 -1.344,1.632 -2.568,1.632 -0.96,0 -1.728,-0.408 -2.208,-1.128 -0.312,-0.48 -0.432,-1.056 -0.48,-2.28 z m -8.64,-2.232 c 0.216,-1.992 1.056,-2.952 2.544,-2.952 1.536,0 2.448,1.032 2.616,2.952 z m 19.826,0.12 h 8.376 v -3 h -8.376 v -3.96 h 9.048 v -3 h -12.648 v 17.496 h 13.08 v -3 h -9.48 z m 22.69599,7.536 v -12.96 h -3.36 v 8.112 c 0,1.536 -1.056,2.544 -2.712,2.544 -1.44,0 -2.16,-0.768 -2.16,-2.328 v -8.328 h -3.36 v 9.024 c 0,2.88 1.56,4.488 4.344,4.488 1.752,0 2.928,-0.624 3.888,-2.088 v 1.536 z m 2.39201,-12.96 v 12.96 h 3.36 v -6.888 c 0,-1.968 0.984,-2.952 2.952,-2.952 0.36,0 0.6,0.024 1.056,0.096 v -3.408 c -0.192,-0.024 -0.264,-0.024 -0.408,-0.024 -1.536,0 -2.856,1.008 -3.6,2.76 v -2.544 z m 14.224,-0.216 c -3.96,0 -6.384,2.616 -6.384,6.864 0,4.272 2.424,6.864 6.408,6.864 3.96,0 6.408,-2.592 6.408,-6.768 0,-4.392 -2.376,-6.96 -6.432,-6.96 z m 0.024,2.712 c 1.848,0 3.048,1.656 3.048,4.2 0,2.424 -1.248,4.104 -3.048,4.104 -1.824,0 -3.048,-1.656 -3.048,-4.152 0,-2.496 1.224,-4.152 3.048,-4.152 z m 11.368,-2.496 h -3.36 v 18.192 h 3.36 v -6.768 c 0.816,1.44 1.968,2.112 3.6,2.112 3.12,0 5.424,-2.928 5.424,-6.864 0,-1.824 -0.528,-3.648 -1.392,-4.848 -0.864,-1.224 -2.472,-2.04 -4.032,-2.04 -1.632,0 -2.784,0.696 -3.6,2.136 z m 2.832,2.592 c 1.704,0 2.832,1.632 2.832,4.128 0,2.376 -1.152,4.008 -2.832,4.008 -1.704,0 -2.832,-1.632 -2.832,-4.056 0,-2.448 1.128,-4.08 2.832,-4.08 z m 18.85601,4.944 c 0.024,-0.288 0.024,-0.408 0.024,-0.576 0,-1.296 -0.192,-2.496 -0.504,-3.408 -0.864,-2.352 -2.952,-3.768 -5.568,-3.768 -3.72,0 -6,2.688 -6,7.032 0,4.152 2.256,6.696 5.928,6.696 2.904,0 5.256,-1.632 6,-4.2 h -3.312 c -0.408,1.032 -1.344,1.632 -2.568,1.632 -0.96,0 -1.728,-0.408 -2.208,-1.128 -0.312,-0.48 -0.432,-1.056 -0.48,-2.28 z m -8.64,-2.232 c 0.216,-1.992 1.056,-2.952 2.544,-2.952 1.536,0 2.448,1.032 2.616,2.952 z m 21.30397,7.248 c -0.576,-0.552 -0.768,-0.936 -0.768,-1.584 v -7.2 c 0,-2.64 -1.8,-3.984 -5.304,-3.984 -3.504,0 -5.328,1.488 -5.544,4.488 h 3.24 c 0.168,-1.344 0.72,-1.776 2.376,-1.776 1.296,0 1.944,0.432 1.944,1.296 0,0.432 -0.216,0.792 -0.576,1.008 -0.456,0.24 -0.456,0.24 -2.112,0.504 l -1.344,0.24 c -2.568,0.432 -3.816,1.752 -3.816,4.08 0,2.328 1.56,3.888 3.936,3.888 1.44,0 2.736,-0.6 3.936,-1.848 0,0.672 0.072,0.912 0.384,1.296 h 3.648 z m -4.056,-4.8 c 0,1.944 -0.96,3.048 -2.664,3.048 -1.128,0 -1.824,-0.6 -1.824,-1.56 0,-1.008 0.528,-1.488 1.92,-1.776 l 1.152,-0.216 c 0.888,-0.168 1.032,-0.216 1.416,-0.408 z m 5.536,-7.752 v 12.96 h 3.36 v -7.776 c 0,-1.536 1.056,-2.544 2.712,-2.544 1.44,0 2.16,0.792 2.16,2.328 v 7.992 h 3.36 v -8.688 c 0,-2.88 -1.56,-4.488 -4.344,-4.488 -1.752,0 -2.928,0.624 -3.888,2.088 v -1.872 z m 30.17,-4.536 v 11.856 c 0,2.112 -1.08,3.12 -3.336,3.12 -2.256,0 -3.336,-1.008 -3.336,-3.12 v -11.856 h -3.6 v 11.856 c 0,1.968 0.528,3.36 1.704,4.416 1.272,1.152 3.12,1.776 5.232,1.776 2.112,0 3.96,-0.624 5.232,-1.776 1.176,-1.056 1.704,-2.448 1.704,-4.416 v -11.856 z m 5.944,4.536 v 12.96 h 3.36 v -7.776 c 0,-1.536 1.056,-2.544 2.712,-2.544 1.44,0 2.16,0.792 2.16,2.328 v 7.992 h 3.36 v -8.688 c 0,-2.88 -1.56,-4.488 -4.344,-4.488 -1.752,0 -2.928,0.624 -3.888,2.088 v -1.872 z m 17.31999,0 h -3.36 v 12.96 h 3.36 z m 0,-4.536 h -3.36 v 3 h 3.36 z m 8.128,4.32 c -3.96,0 -6.384,2.616 -6.384,6.864 0,4.272 2.424,6.864 6.408,6.864 3.96,0 6.408,-2.592 6.408,-6.768 0,-4.392 -2.376,-6.96 -6.432,-6.96 z m 0.024,2.712 c 1.848,0 3.048,1.656 3.048,4.2 0,2.424 -1.248,4.104 -3.048,4.104 -1.824,0 -3.048,-1.656 -3.048,-4.152 0,-2.496 1.224,-4.152 3.048,-4.152 z m 8.12801,-2.496 v 12.96 h 3.36 v -7.776 c 0,-1.536 1.056,-2.544 2.712,-2.544 1.44,0 2.16,0.792 2.16,2.328 v 7.992 h 3.36 v -8.688 c 0,-2.88 -1.56,-4.488 -4.344,-4.488 -1.752,0 -2.928,0.624 -3.888,2.088 v -1.872 z"
         id="path3" /></g><text
       xml:space="preserve"
       style="font-weight:bold;font-size:24px;line-height:1.15;font-family:'Roboto Mono for Powerline';-inkscape-font-specification:'Roboto Mono for Powerline Bold';text-align:start;letter-spacing:0px;word-spacing:0px;text-anchor:start;display:none;fill:#003399;fill-opacity:1"
       x="124.35805"
       y="29.435986"
       id="text24-6"
       inkscape:label="text"><tspan
         sodipodi:role="line"
         id="tspan24-3"
         x="124.35805"
         y="29.435986"
         style="font-style:normal;font-variant:normal;font-weight:bold;font-stretch:normal;font-size:24px;line-height:1.1;font-family:'Nimbus Sans';-inkscape-font-specification:'Nimbus Sans Bold';letter-spacing:-0.8px;word-spacing:-0.15px;fill:#003399;fill-opacity:1">Co-funded by</tspan><tspan
         sodipodi:role="line"
         x="124.35805"
         y="57.035984"
         id="tspan25-1"
         style="font-style:normal;font-variant:normal;font-weight:bold;font-stretch:normal;font-size:24px;line-height:1.1;font-family:'Nimbus Sans';-inkscape-font-specification:'Nimbus Sans Bold';letter-spacing:-0.8px;word-spacing:-0.15px;fill:#003399;fill-opacity:1">the European Union</tspan></text></g></svg>
