<?xml version="1.0" encoding="UTF-8" standalone="no"?>
<!-- Created with Inkscape (http://www.inkscape.org/) -->

<svg
   width="26.000004mm"
   height="26.000004mm"
   viewBox="0 0 26.000004 26.000004"
   version="1.1"
   id="svg187"
   xml:space="preserve"
   xmlns:xlink="http://www.w3.org/1999/xlink"
   xmlns="http://www.w3.org/2000/svg"
   xmlns:svg="http://www.w3.org/2000/svg"><defs
     id="defs184"><linearGradient
       id="linearGradient22175"><stop
         style="stop-color:#009353;stop-opacity:0.76862746;"
         offset="0"
         id="stop22173" /><stop
         style="stop-color:#004e9a;stop-opacity:0.8235662;"
         offset="0.96104523"
         id="stop22171" /></linearGradient><linearGradient
       xlink:href="#linearGradient22175"
       id="linearGradient22169"
       x1="70.539948"
       y1="113.79688"
       x2="97.410782"
       y2="113.79688"
       gradientUnits="userSpaceOnUse"
       gradientTransform="matrix(0.96759184,0,0,1.0197041,55.544025,-17.664822)" /></defs><g
     id="layer2"
     transform="translate(-123.79792,-85.374326)"><circle
       style="fill:url(#linearGradient22169);fill-opacity:1;stroke:none;stroke-width:0.471821;stroke-linecap:round;stroke-miterlimit:1.3;stroke-dasharray:none;stroke-opacity:0.811765"
       id="path21727"
       cx="136.79791"
       cy="98.374329"
       r="13" /><g
       id="g3"
       transform="matrix(1.3739224,1.0283316,-1.0283316,1.3739224,178.38575,-231.77943)"
       style="fill:none;fill-opacity:0.811765;stroke:#ffffff;stroke-opacity:0.811765"><g
         aria-label="kunai"
         transform="matrix(0.77607011,-0.57644272,0.61679926,0.83040249,4.2188539,-12.566201)"
         id="text16506-7-7"
         style="font-size:11.0615px;font-family:Joystix;-inkscape-font-specification:Joystix;display:inline;fill:#ffffff;fill-opacity:1;stroke:#ffffff;stroke-width:0.246484;stroke-linecap:round;stroke-linejoin:round;stroke-dasharray:none;stroke-opacity:1"><path
           id="path4490-8-1"
           style="font-family:'Korner Deli NF';-inkscape-font-specification:'Korner Deli NF';display:inline;fill:#ffffff;fill-opacity:1;stroke:#ffffff;stroke-width:0.246484;stroke-dasharray:none;stroke-opacity:1"
           d="m -36.344523,189.60554 -0.626168,1.39897 1.681823,-0.006 0.623718,-1.39345 z m 3.446442,-2.9e-4 -1.645249,1.39096 2.07931,-0.007 1.642141,-1.38396 z m -4.508889,2.37393 -2.319753,5.18153 1.678473,2.6e-4 1.046455,-2.33759 1.15977,-0.98614 c 0.188298,-0.0999 0.367737,-0.15524 0.54445,-0.15524 0.452825,0 0.601555,0.43211 0.598594,0.80878 l -0.01348,2.67027 1.833496,-2.7e-4 0.0068,-3.34568 c 0.0059,-0.75334 -0.287173,-1.40688 -0.947351,-1.68382 l 0.195996,-0.16503 -2.075578,0.007 -0.04268,0.036 0.01602,-0.036 z" /></g><g
         id="g21005-5-7"
         transform="matrix(-0.06492854,0.06900472,0.07407836,0.05276851,93.727484,153.61512)"
         style="display:inline;fill:none;fill-opacity:1;stroke:#ffffff;stroke-width:0.999874;stroke-dasharray:none;stroke-opacity:1"><ellipse
           style="display:none;fill:none;fill-opacity:1;stroke:#ffffff;stroke-width:0.999879;stroke-linecap:round;stroke-dasharray:none;stroke-opacity:1"
           id="path1266-2-5"
           cx="-235.41629"
           cy="42.148525"
           transform="matrix(-0.60677428,-0.79487418,0.79223903,-0.61021088,0,0)"
           rx="4.520556"
           ry="3.9659696" /><path
           style="mix-blend-mode:normal;fill:none;fill-opacity:1;stroke:#ffffff;stroke-width:1.8945;stroke-linecap:round;stroke-linejoin:round;stroke-dasharray:none;stroke-opacity:1"
           d="M 117.56795,112.35346 95.548971,61.959556 138.61334,96.37151 137.6487,111.143 l 35.17989,46.46996 c 2.14568,-1.66342 5.15989,-1.61168 7.09146,1.10237 1.36006,1.87632 1.5653,5.11375 -0.79099,6.85291 -2.6809,1.51403 -5.30074,0.10317 -6.62681,-1.5957"
           id="path3415-5-3" /><g
           id="g13786-4-5"
           style="display:inline;fill:none;fill-opacity:1;stroke:#ffffff;stroke-width:0.999874;stroke-dasharray:none;stroke-opacity:1"
           transform="translate(34.443214,1.601923)"><path
             id="path13782-7-6"
             style="display:none;fill:none;fill-opacity:1;stroke:#ffffff;stroke-width:0.999874;stroke-linecap:round;stroke-linejoin:round;stroke-dasharray:none;stroke-opacity:1"
             d="m 87.025127,108.84606 7.795744,-4.28199 6.380409,-6.730281 M 76.33296,80.202368 98.192606,108.65274" /></g><g
           id="g16359-4-2"
           style="fill:none;fill-opacity:1;stroke:#ffffff;stroke-width:0.600056;stroke-dasharray:none;stroke-opacity:1"
           transform="matrix(1.7338539,1.8279111,-0.43691893,1.1407622,-60.054239,-251.39756)"><path
             style="color:#000000;display:none;fill:none;fill-opacity:1;stroke:#ffffff;stroke-width:0.600056;stroke-linecap:round;stroke-linejoin:round;stroke-dasharray:none;stroke-opacity:1"
             d="m 160.78711,103.76758 a 0.3121345,0.3121345 0 0 0 -0.39258,0.20312 l -0.81641,2.55469 a 0.3121345,0.3121345 0 0 0 0.20313,0.39258 0.3121345,0.3121345 0 0 0 0.39258,-0.20313 l 0.81445,-2.55468 a 0.3121345,0.3121345 0 0 0 -0.20117,-0.39258 z"
             id="path4344-4-9" /><path
             style="color:#000000;display:none;fill:none;fill-opacity:1;stroke:#ffffff;stroke-width:0.600056;stroke-linecap:round;stroke-linejoin:round;stroke-dasharray:none;stroke-opacity:1"
             d="m 137.36133,97.519531 a 0.3121345,0.3121345 0 0 0 -0.39258,0.201172 l -0.81641,2.556637 a 0.3121345,0.3121345 0 0 0 0.20313,0.39063 0.3121345,0.3121345 0 0 0 0.39258,-0.20117 l 0.81445,-2.556644 a 0.3121345,0.3121345 0 0 0 -0.20117,-0.390625 z"
             id="path4302-3-1" /><path
             id="path4305-0-2"
             style="color:#000000;font-size:11.0615px;font-family:Joystix;-inkscape-font-specification:Joystix;display:none;fill:none;fill-opacity:1;stroke:#ffffff;stroke-width:0.475;stroke-linecap:round;stroke-linejoin:round;stroke-dasharray:none;stroke-opacity:1"
             d="m -39.709236,198.17822 a 0.21878959,0.36937968 89.773597 0 0 0.198761,-0.12086 l 1.158014,-1.69447 a 0.21878959,0.36937968 89.773597 0 0 -0.203721,-0.28522 0.21878959,0.36937968 89.773597 0 0 -0.480176,0.12152 l -1.157442,1.69579 a 0.21878959,0.36937968 89.773597 0 0 0.203721,0.28522 0.21878959,0.36937968 89.773597 0 0 0.280832,-0.003 z m 2.119093,0.009 a 0.21878959,0.36937968 89.773597 0 0 0.199329,-0.11953 l 1.157431,-1.69581 a 0.21878959,0.36937968 89.773597 0 0 -0.20315,-0.28389 0.21878959,0.36937968 89.773597 0 0 -0.482412,0.12191 l -1.15801,1.69448 a 0.21878959,0.36937968 89.773597 0 0 0.203721,0.28524 0.21878959,0.36937968 89.773597 0 0 0.283068,-0.003 z m 2.119092,0.009 a 0.21878959,0.36937968 89.773597 0 0 0.199318,-0.11953 l 1.157442,-1.6958 a 0.21878959,0.36937968 89.773597 0 0 -0.203149,-0.2839 0.21878959,0.36937968 89.773597 0 0 -0.482412,0.12193 l -1.157442,1.69579 a 0.21878959,0.36937968 89.773597 0 0 0.203152,0.28391 0.21878959,0.36937968 89.773597 0 0 0.28308,-0.003 z m 2.119661,0.0106 a 0.21878959,0.36937968 89.773597 0 0 0.196513,-0.12046 l 1.158011,-1.69447 a 0.21878959,0.36937968 89.773597 0 0 -0.203721,-0.28522 0.21878959,0.36937968 89.773597 0 0 -0.480164,0.12152 l -1.157442,1.6958 a 0.21878959,0.36937968 89.773597 0 0 0.203152,0.28389 0.21878959,0.36937968 89.773597 0 0 0.283663,-9e-4 z m 2.116845,0.009 a 0.21878959,0.36937968 89.773597 0 0 0.199329,-0.11953 l 1.157442,-1.6958 a 0.21878959,0.36937968 89.773597 0 0 -0.203152,-0.28389 0.21878959,0.36937968 89.773597 0 0 -0.480176,0.12151 l -1.160247,1.69482 a 0.21878959,0.36937968 89.773597 0 0 0.206015,0.28488 0.21878959,0.36937968 89.773597 0 0 0.280832,-0.003 z m 2.11909,0.009 a 0.21878959,0.36937968 89.773597 0 0 0.199332,-0.11955 l 1.157442,-1.69579 a 0.21878959,0.36937968 89.773597 0 0 -0.203153,-0.2839 0.21878959,0.36937968 89.773597 0 0 -0.482412,0.12192 l -1.157442,1.6958 a 0.21878959,0.36937968 89.773597 0 0 0.20315,0.2839 0.21878959,0.36937968 89.773597 0 0 0.283068,-0.003 z m 1.836012,0.0106 a 0.21878959,0.36937968 89.773597 0 0 0.480164,-0.12152 l 1.160262,-1.69481 a 0.21878959,0.36937968 89.773597 0 0 -0.206015,-0.28487 0.21878959,0.36937968 89.773597 0 0 -0.480175,0.12152 l -1.157442,1.69579 a 0.21878959,0.36937968 89.773597 0 0 0.203152,0.28391 z m 2.400493,0.008 a 0.21878959,0.36937968 89.773597 0 0 0.198761,-0.12086 l 1.158013,-1.69448 a 0.21878959,0.36937968 89.773597 0 0 -0.203721,-0.28522 0.21878959,0.36937968 89.773597 0 0 -0.480164,0.12152 l -1.157442,1.69581 a 0.21878959,0.36937968 89.773597 0 0 0.203721,0.28522 0.21878959,0.36937968 89.773597 0 0 0.28082,-0.003 z m 2.119093,0.009 a 0.21878959,0.36937968 89.773597 0 0 0.199329,-0.11953 l 1.157442,-1.6958 a 0.21878959,0.36937968 89.773597 0 0 -0.20315,-0.2839 0.21878959,0.36937968 89.773597 0 0 -0.482411,0.12193 l -1.158011,1.69447 a 0.21878959,0.36937968 89.773597 0 0 0.203721,0.28522 0.21878959,0.36937968 89.773597 0 0 0.28308,-0.003 z m 1.836012,0.0106 a 0.21878959,0.36937968 89.773597 0 0 0.482408,-0.12191 l 1.157443,-1.69581 a 0.21878959,0.36937968 89.773597 0 0 -0.203152,-0.28389 0.21878959,0.36937968 89.773597 0 0 -0.482412,0.12192 l -1.157443,1.6958 a 0.21878959,0.36937968 89.773597 0 0 0.203151,0.28389 z m 2.402741,0.008 a 0.21878959,0.36937968 89.773597 0 0 0.196524,-0.12046 l 1.157999,-1.69448 a 0.21878959,0.36937968 89.773597 0 0 -0.203721,-0.28522 0.21878959,0.36937968 89.773597 0 0 -0.480175,0.12152 l -1.157442,1.69581 a 0.21878959,0.36937968 89.773597 0 0 0.203151,0.28389 0.21878959,0.36937968 89.773597 0 0 0.283648,-9e-4 z m 2.116855,0.009 a 0.21878959,0.36937968 89.773597 0 0 0.199319,-0.11953 l 1.157442,-1.69581 a 0.21878959,0.36937968 89.773597 0 0 -0.203153,-0.28389 0.21878959,0.36937968 89.773597 0 0 -0.480175,0.12152 l -1.160248,1.69482 a 0.21878959,0.36937968 89.773597 0 0 0.206014,0.28487 0.21878959,0.36937968 89.773597 0 0 0.280844,-0.003 z m 2.11908,0.009 a 0.21878959,0.36937968 89.773597 0 0 0.19933,-0.11954 l 1.157443,-1.6958 a 0.21878959,0.36937968 89.773597 0 0 -0.203152,-0.2839 0.21878959,0.36937968 89.773597 0 0 -0.482412,0.12193 l -1.157443,1.69579 a 0.21878959,0.36937968 89.773597 0 0 0.203152,0.2839 0.21878959,0.36937968 89.773597 0 0 0.283079,-0.003 z"
             transform="matrix(-0.81807387,-0.21175575,0.46532186,-1.8303103,35.163613,456.53058)" /></g></g></g></g></svg>
