<?xml version="1.0" encoding="UTF-8" standalone="no"?>
<!-- Created with Inkscape (http://www.inkscape.org/) -->

<svg
   width="500.00009"
   height="188.30701"
   viewBox="0 0 132.29169 49.822893"
   version="1.1"
   id="svg23242"
   xml:space="preserve"
   inkscape:export-filename="bee-ferry.svg"
   inkscape:export-xdpi="71.744957"
   inkscape:export-ydpi="71.744957"
   xmlns:inkscape="http://www.inkscape.org/namespaces/inkscape"
   xmlns:sodipodi="http://sodipodi.sourceforge.net/DTD/sodipodi-0.dtd"
   xmlns="http://www.w3.org/2000/svg"
   xmlns:svg="http://www.w3.org/2000/svg"><sodipodi:namedview
     id="namedview23244"
     pagecolor="#ffffff"
     bordercolor="#666666"
     borderopacity="1.0"
     inkscape:showpageshadow="2"
     inkscape:pageopacity="0.0"
     inkscape:pagecheckerboard="0"
     inkscape:deskcolor="#d1d1d1"
     inkscape:document-units="mm"
     showgrid="false"
     inkscape:zoom="0.84914083"
     inkscape:cx="669.50025"
     inkscape:cy="266.15138"
     inkscape:window-width="1916"
     inkscape:window-height="1031"
     inkscape:window-x="1920"
     inkscape:window-y="24"
     inkscape:window-maximized="1"
     inkscape:current-layer="layer1" /><defs
     id="defs23239" /><g
     inkscape:label="Layer 1"
     inkscape:groupmode="layer"
     id="layer1"
     transform="translate(-54.836399,-108.38652)"><g
       inkscape:label="bee"
       id="layer1-6"
       transform="matrix(0.63833402,0,0,0.63833402,18.39427,43.768604)"
       inkscape:export-filename="bee-ferry.svg"
       inkscape:export-xdpi="55.9217"
       inkscape:export-ydpi="55.9217"><g
         id="g28135"
         transform="translate(13.086157,15.007516)"
         inkscape:export-filename="bee.svg"
         inkscape:export-xdpi="55.9217"
         inkscape:export-ydpi="55.9217"><path
           style="fill:#d8f0fc;stroke-width:0.264583"
           d="m 101.00795,158.66532 c 0.11377,-0.69122 0.21396,-1.75128 0.22264,-2.35569 l 0.0158,-1.09892 1.78593,0.63032 c 0.98227,0.34668 2.0836,0.63465 2.4474,0.63995 1.33134,0.0194 1.49026,0.38408 0.69261,1.58942 -0.87092,1.31605 -2.01339,1.85169 -3.94946,1.85169 h -1.42176 z m -5.881278,-1.73882 c -1.36036,-1.10957 -4.398449,-4.59497 -4.165145,-4.77841 0.0541,-0.0425 0.928762,-0.46016 1.943682,-0.92805 1.014921,-0.46789 2.229599,-1.14382 2.699282,-1.50207 l 0.853969,-0.65135 0.13104,0.86367 c 0.282591,1.86253 0.371295,4.65314 0.203102,6.38947 l -0.176453,1.82162 z m 9.451598,-5.3324 c -0.85958,-0.35339 -1.98296,-0.98252 -2.49638,-1.39807 -0.89202,-0.72197 -0.96515,-0.91356 -1.64578,-4.31214 -1.116324,-5.57412 -3.284997,-11.64192 -5.836546,-16.33025 -0.576432,-1.05916 -0.976564,-2.04143 -0.889183,-2.18282 0.276741,-0.44778 2.333927,-0.2811 3.223255,0.26115 1.563783,0.9535 5.158134,6.14027 6.719644,9.69667 2.02939,4.62202 3.31461,9.17084 3.585,12.68853 0.17124,2.22786 0.17038,2.232 -0.46278,2.22573 -0.34889,-0.003 -1.33765,-0.29542 -2.19723,-0.6488 z m -16.523373,-5.49649 c -0.766996,-2.58777 -0.786075,-6.92963 -0.04322,-9.83419 0.621282,-2.42919 1.827602,-5.23068 2.163054,-5.02335 0.623983,0.38564 3.729842,7.43747 4.743778,10.77071 l 0.4671,1.53555 -1.405474,1.40548 c -1.262846,1.26284 -4.22597,3.06403 -5.040625,3.06403 -0.173839,0 -0.571918,-0.8632 -0.884618,-1.91823 z M 64.138522,129.5841 c -0.380059,-0.10498 -0.435721,-0.32595 -0.310584,-1.23297 0.261603,-1.89617 1.124279,-4.50203 1.832986,-5.53685 l 0.679511,-0.99219 h 2.180215 c 2.41806,0 5.448225,0.32586 9.03558,0.97167 l 2.371334,0.42689 -1.339186,1.21895 c -3.143443,2.86122 -7.786923,4.80827 -12.26702,5.14366 -0.945885,0.0708 -1.928162,0.0712 -2.182836,7.9e-4 z m -6.05344,-1.39945 c -1.576174,-0.6001 -3.817487,-1.8915 -4.980683,-2.86978 l -0.913834,-0.76856 1.575292,-0.5931 c 1.947699,-0.7333 6.393308,-1.76692 6.620859,-1.53937 0.09225,0.0922 -0.02142,0.74098 -0.252599,1.44163 -0.231177,0.70066 -0.511199,2.06627 -0.62227,3.03471 l -0.201947,1.76079 z m -9.251372,-7.86241 c -0.777706,-1.98843 -0.63396,-3.54693 0.445466,-4.82975 0.811551,-0.96448 1.318367,-1.03726 1.523908,-0.21883 0.08223,0.32742 0.678967,1.38467 1.326083,2.34946 l 1.176575,1.75414 -1.888865,0.7594 c -1.038876,0.41766 -1.979161,0.79884 -2.089522,0.84704 -0.110362,0.0482 -0.332502,-0.24944 -0.493645,-0.66146 z m 31.789528,-1.57088 c -4.996333,-1.16143 -13.480679,-1.62932 -19.463945,-1.07339 l -2.383941,0.22151 -1.29955,-1.14391 c -1.278911,-1.12574 -2.79611,-3.19924 -2.79611,-3.82133 0,-0.61992 4.618528,-1.26655 8.995833,-1.25949 6.035844,0.01 11.65988,1.13525 15.833775,3.16877 1.665255,0.81131 2.014431,1.10368 2.441585,2.04441 0.526749,1.16007 0.640485,1.92487 0.311619,2.09544 -0.109141,0.0566 -0.84681,-0.0478 -1.639266,-0.23201 z"
           id="path28215" /><path
           style="fill:#e0e0e0;stroke-width:0.264583"
           d="m 108.43188,120.23459 c 0,-0.3638 0.0601,-0.51263 0.13346,-0.33073 0.0734,0.18191 0.0734,0.47956 0,0.66146 -0.0734,0.1819 -0.13346,0.0331 -0.13346,-0.33073 z"
           id="path28213" /><path
           style="fill:#bde8fa;stroke-width:0.264583"
           d="m 96.76933,155.53442 c 0.0127,-0.30823 0.07539,-0.37092 0.15985,-0.15985 0.07643,0.19099 0.06703,0.4192 -0.02088,0.50712 -0.08792,0.0879 -0.150453,-0.0684 -0.138965,-0.34727 z m 0,-2.91042 c 0.0127,-0.30822 0.07539,-0.37092 0.15985,-0.15985 0.07643,0.191 0.06703,0.4192 -0.02088,0.50712 -0.08792,0.0879 -0.150453,-0.0684 -0.138965,-0.34727 z"
           id="path28211" /><path
           style="fill:#bdd2dd;stroke-width:0.264583"
           d="m 79.153649,123.93876 c 0.263391,-0.29104 0.538422,-0.52917 0.611183,-0.52917 0.07276,0 -0.08321,0.23813 -0.346599,0.52917 -0.26339,0.29104 -0.538422,0.52917 -0.611182,0.52917 -0.07276,0 0.08321,-0.23813 0.346598,-0.52917 z"
           id="path28205" /><path
           style="fill:#bdd2dc;stroke-width:0.264583"
           d="m 87.295503,141.40126 c 0,-0.65484 0.0516,-0.92273 0.114662,-0.59531 0.06307,0.32742 0.06307,0.8632 0,1.19062 -0.06306,0.32742 -0.114662,0.0595 -0.114662,-0.59531 z M 56.638928,116.1997 56.1349,115.60439 l 0.595312,0.50402 c 0.559447,0.47367 0.715762,0.6866 0.504028,0.6866 -0.05021,0 -0.318097,-0.26789 -0.595312,-0.59531 z"
           id="path28203" /><path
           style="fill:#86d6f7;stroke-width:0.264583"
           d="m 67.048962,121.63537 c 0.327422,-0.0631 0.863203,-0.0631 1.190625,0 0.327422,0.0631 0.05953,0.11466 -0.595312,0.11466 -0.654844,0 -0.922735,-0.0516 -0.595313,-0.11466 z"
           id="path28201" /><path
           style="fill:#35bef2;stroke-width:0.264583"
           d="m 59.46308,128.28234 c 0.0127,-0.30823 0.07539,-0.37092 0.159852,-0.15986 0.07643,0.191 0.06703,0.4192 -0.02089,0.50712 -0.08792,0.0879 -0.150453,-0.0684 -0.138964,-0.34726 z"
           id="path28197" /><path
           style="fill:#fee000;stroke-width:0.264583"
           d="m 72.406775,156.06551 c -3.564352,-0.93611 -7.825901,-3.74575 -10.126456,-6.67639 -3.511385,-4.4731 -4.391753,-9.32474 -2.570099,-14.16361 l 0.581837,-1.54553 0.96413,0.18007 c 0.530271,0.099 0.975755,0.19922 0.989964,0.22262 0.01421,0.0234 0.153311,0.69739 0.309114,1.49776 1.125004,5.77917 5.553548,11.16895 11.328567,13.78746 2.491812,1.12985 4.889664,1.61793 8.138234,1.65656 2.828843,0.0336 2.873552,0.0439 3.240564,0.74447 0.359225,0.6857 0.333121,0.74204 -0.75175,1.62238 -3.311774,2.68744 -8.05964,3.7364 -12.104105,2.67421 z m 6.879166,-15.17625 c -2.628487,-0.80245 -5.392803,-3.19317 -6.471539,-5.59691 -0.394023,-0.878 -0.659326,-1.74512 -0.589558,-1.92693 0.06977,-0.18181 0.645258,-0.48393 1.278869,-0.67137 1.646222,-0.487 4.950272,-2.24745 6.752437,-3.59779 l 1.543333,-1.1564 0.661458,0.60271 c 0.526947,0.48016 1.421995,1.13311 2.583132,1.88444 0.03827,0.0248 -0.217432,0.80758 -0.56824,1.73959 -0.685853,1.82214 -1.381339,4.99531 -1.632588,7.44872 l -0.155797,1.52136 -1.370025,-0.0227 c -0.753513,-0.0125 -1.66768,-0.11363 -2.031482,-0.22469 z"
           id="path28193" /><path
           style="fill:#87969e;stroke-width:0.264583"
           d="m 102.23855,160.01145 c 0.1819,-0.0734 0.47955,-0.0734 0.66145,0 0.1819,0.0734 0.0331,0.13345 -0.33073,0.13345 -0.3638,0 -0.51263,-0.06 -0.33072,-0.13345 z m 5.135,-8.02686 c 0,-0.3638 0.0601,-0.51263 0.13345,-0.33073 0.0734,0.18191 0.0734,0.47956 0,0.66146 -0.0734,0.1819 -0.13345,0.0331 -0.13345,-0.33073 z m -6.16094,-2.3151 c -0.32911,-0.41965 -0.31975,-0.429 0.0999,-0.0999 0.25466,0.19972 0.46302,0.40808 0.46302,0.46302 0,0.21777 -0.21727,0.0776 -0.56292,-0.36312 z M 64.948832,117.40802 c 0.190996,-0.0764 0.419199,-0.067 0.507118,0.0209 0.08792,0.0879 -0.06835,0.15045 -0.347266,0.13896 -0.308224,-0.0127 -0.370919,-0.0754 -0.159852,-0.15985 z"
           id="path28189" /><path
           style="fill:#dec400;stroke-width:0.264583"
           d="m 81.339547,151.00371 c 0.329118,-0.0633 0.805368,-0.0609 1.058333,0.005 0.252966,0.0662 -0.01632,0.118 -0.598397,0.11507 -0.582084,-0.003 -0.789054,-0.0571 -0.459936,-0.12041 z m -6.320689,-12.44672 c -0.329108,-0.41965 -0.319749,-0.429 0.0999,-0.0999 0.254661,0.19972 0.463021,0.40808 0.463021,0.46302 0,0.21777 -0.217274,0.0776 -0.562917,-0.36312 z"
           id="path28187" /><path
           style="fill:#00adee;stroke-width:0.264583"
           d="m 97.674483,158.65423 -0.79375,-0.45193 0.0814,-3.43958 c 0.04477,-1.89177 0.0083,-4.04961 -0.081,-4.79519 l -0.162406,-1.3556 -1.677229,1.1247 c -0.922475,0.61859 -2.241915,1.34036 -2.932091,1.60394 l -1.254866,0.47924 -0.492633,-0.60838 c -0.583414,-0.72049 -0.640278,-1.3435 -0.122626,-1.3435 0.562234,0 3.184408,-1.44258 4.417213,-2.43011 0.602279,-0.48245 1.54341,-1.502 2.091404,-2.26566 l 0.99635,-1.38848 0.306242,1.21619 c 0.588595,2.33752 1.076076,6.34349 1.075341,8.83681 -7.94e-4,2.74347 -0.240769,5.29809 -0.496015,5.28057 -0.08887,-0.006 -0.518771,-0.21446 -0.955334,-0.46302 z m 7.143747,-2.56703 c -0.87312,-0.19428 -2.03398,-0.5436 -2.57968,-0.77626 -0.94008,-0.40081 -0.99219,-0.48654 -0.99219,-1.63215 0,-0.66502 0.0893,-1.16336 0.19844,-1.10743 1.48393,0.76052 2.89263,1.3191 4.15765,1.64859 0.84966,0.22131 1.57224,0.43397 1.60572,0.47257 0.0335,0.0386 0.002,0.45715 -0.0701,0.93009 -0.14624,0.96019 -0.118,0.95453 -2.31986,0.46459 z M 94.665416,140.38597 c -0.486974,-1.40612 -1.660689,-4.18481 -2.60826,-6.17487 l -1.722853,-3.61829 0.581467,-0.81659 c 0.319807,-0.44913 0.708189,-0.73828 0.863074,-0.64256 0.382222,0.23623 3.10394,6.03682 4.173775,8.89524 l 0.866886,2.31619 -0.453244,1.18681 c -0.249285,0.65274 -0.534742,1.23717 -0.634344,1.29873 -0.09961,0.0616 -0.57953,-1.03854 -1.066501,-2.44466 z m -34.401242,-11.4424 c -0.603837,-0.24155 -0.626025,-0.33594 -0.47807,-2.03375 0.08534,-0.97924 0.393641,-2.46504 0.685121,-3.30179 l 0.529965,-1.52135 -0.713353,0.002 c -1.000214,0.003 -4.610001,0.8948 -6.721237,1.66124 l -1.774551,0.64421 -0.540554,-0.57539 c -0.297304,-0.31647 -0.540553,-0.69179 -0.540553,-0.83404 0,-0.30429 3.939095,-1.77972 6.217708,-2.32892 1.593379,-0.38404 4.213782,-0.77854 7.110429,-1.07049 l 1.55418,-0.15663 -0.828549,0.94366 c -1.32205,1.50573 -2.376713,3.88783 -2.86507,6.47115 -0.248195,1.31291 -0.575234,2.37956 -0.726752,2.37034 -0.151519,-0.009 -0.56044,-0.13076 -0.908714,-0.27009 z m 17.470089,-6.35228 c -2.698734,-0.56392 -6.868567,-1.03378 -9.174323,-1.03378 -0.940178,0 -1.709415,-0.0936 -1.709415,-0.20796 0,-0.11438 0.499154,-0.5916 1.109232,-1.06049 1.059744,-0.81449 1.186644,-0.84555 2.844272,-0.69634 5.050129,0.45459 10.598579,1.32966 10.598579,1.67154 0,0.0995 -0.327422,0.54287 -0.727604,0.98521 l -0.727605,0.80426 z m -24.849854,-4.40722 c -0.665813,-0.8454 -2.173467,-3.52413 -2.173467,-3.86171 0,-0.15762 1.589862,-0.79295 1.681188,-0.67182 0.0422,0.056 0.413627,0.68956 0.8254,1.40798 0.411774,0.71843 1.214844,1.81196 1.784602,2.43007 l 1.035922,1.12384 -1.00991,0.28044 c -1.360615,0.37783 -1.262362,0.41031 -2.143735,-0.7088 z"
           id="path28185" /><path
           style="fill:#0097d0;stroke-width:0.264583"
           d="m 95.160941,146.85761 c 0,-0.0549 0.208359,-0.2633 0.463021,-0.46302 0.419645,-0.3291 0.429003,-0.31975 0.0999,0.0999 -0.345644,0.44073 -0.562917,0.58089 -0.562917,0.36312 z"
           id="path28179" /><path
           style="fill:#bea800;stroke-width:0.264583"
           d="m 82.746413,140.71775 c 0.0127,-0.30822 0.07539,-0.37092 0.159851,-0.15985 0.07643,0.191 0.06703,0.4192 -0.02088,0.50712 -0.08792,0.0879 -0.150452,-0.0684 -0.138964,-0.34727 z"
           id="path28177" /><path
           style="fill:#6c787e;stroke-width:0.264583"
           d="m 93.553415,155.75491 -0.641432,-0.72761 0.727604,0.64143 c 0.680056,0.59952 0.848939,0.81378 0.641432,0.81378 -0.04739,0 -0.374814,-0.32742 -0.727604,-0.7276 z m 0.416901,-10.64948 c 0.26339,-0.29104 0.538422,-0.52917 0.611182,-0.52917 0.07276,0 -0.08321,0.23813 -0.346599,0.52917 -0.26339,0.29104 -0.538422,0.52916 -0.611182,0.52916 -0.07276,0 0.08321,-0.23812 0.346599,-0.52916 z M 66.513894,117.3978 c 0.469697,-0.0584 1.303135,-0.0594 1.852084,-0.002 0.548948,0.0573 0.164651,0.10509 -0.853995,0.10627 -1.018646,10e-4 -1.467786,-0.0457 -0.998089,-0.10414 z"
           id="path28175" /><path
           style="fill:#0082b2;stroke-width:0.264583"
           d="m 61.579746,128.8115 c 0.0127,-0.30822 0.07539,-0.37092 0.159853,-0.15985 0.07643,0.191 0.06703,0.4192 -0.02089,0.50712 -0.08792,0.0879 -0.150453,-0.0684 -0.138965,-0.34727 z"
           id="path28173" /><path
           style="fill:#9e8c00;stroke-width:0.264583"
           d="m 75.652955,156.56374 c 0.257432,-0.0671 0.61462,-0.0627 0.79375,0.01 0.179131,0.0725 -0.03149,0.12736 -0.468055,0.12197 -0.436563,-0.005 -0.583126,-0.0647 -0.325695,-0.13178 z"
           id="path28171" /><path
           style="fill:#616161;stroke-width:0.264583"
           d="m 62.815629,107.07861 c 0.472943,-0.0587 1.246849,-0.0587 1.719792,0 0.472942,0.0587 0.08599,0.10671 -0.859896,0.10671 -0.945886,0 -1.332839,-0.048 -0.859896,-0.10671 z"
           id="path28169" /><path
           style="fill:#006c94;stroke-width:0.264583"
           d="m 55.175109,117.65491 c -0.329107,-0.41965 -0.319749,-0.42901 0.0999,-0.0999 0.254662,0.19972 0.463021,0.40808 0.463021,0.46302 0,0.21776 -0.217272,0.0776 -0.562916,-0.36312 z"
           id="path28163" /><path
           style="fill:#7f7000;stroke-width:0.264583"
           d="m 63.377192,150.99241 c -0.329107,-0.41965 -0.319749,-0.42901 0.09989,-0.0999 0.254662,0.19972 0.463021,0.40808 0.463021,0.46302 0,0.21776 -0.217272,0.0776 -0.562916,-0.36312 z m 4.38273,-5.95313 -0.777106,-0.85989 0.859896,0.7771 c 0.801543,0.72437 0.981512,0.94269 0.777105,0.94269 -0.04553,0 -0.432487,-0.38696 -0.859895,-0.8599 z"
           id="path28161" /><path
           style="fill:#005777;stroke-width:0.264583"
           d="m 64.998441,120.1347 c 0,-0.0549 0.20836,-0.2633 0.463021,-0.46302 0.419644,-0.32911 0.429002,-0.31975 0.0999,0.0999 -0.345644,0.44073 -0.562916,0.58089 -0.562916,0.36313 z"
           id="path28159" /><path
           style="fill:#005677;stroke-width:0.264583"
           d="m 99.211677,153.96897 c 0.0016,-0.87313 0.05088,-1.19842 0.109765,-0.72287 0.05889,0.47555 0.05767,1.18993 -0.0027,1.5875 -0.06037,0.39758 -0.108551,0.008 -0.107067,-0.86463 z"
           id="path28157" /><path
           style="fill:#363c3f;stroke-width:0.264583"
           d="m 63.080212,111.32812 c 0.181901,-0.0734 0.479558,-0.0734 0.661459,0 0.181901,0.0734 0.03307,0.13345 -0.33073,0.13345 -0.363802,0 -0.51263,-0.0601 -0.330729,-0.13345 z"
           id="path28153" /><path
           style="fill:#002b3c;stroke-width:0.264583"
           d="m 101.02355,153.04293 c 0,-0.36381 0.0601,-0.51263 0.13345,-0.33073 0.0734,0.1819 0.0734,0.47955 0,0.66146 -0.0734,0.1819 -0.13345,0.0331 -0.13345,-0.33073 z"
           id="path28149" /><path
           style="fill:#1b1e1f;stroke-width:0.264583"
           d="m 79.418233,123.93876 c 0.26339,-0.29104 0.538422,-0.52917 0.611182,-0.52917 0.07276,0 -0.08321,0.23813 -0.346599,0.52917 -0.26339,0.29104 -0.538422,0.52917 -0.611182,0.52917 -0.07276,0 0.08321,-0.23813 0.346599,-0.52917 z m -22.779305,-7.47448 -0.504028,-0.59531 0.595312,0.50403 c 0.559447,0.47366 0.715762,0.68659 0.504028,0.68659 -0.05021,0 -0.318097,-0.26789 -0.595312,-0.59531 z m 5.382951,-5.13616 c 0.181901,-0.0734 0.479557,-0.0734 0.661458,0 0.181901,0.0734 0.03307,0.13345 -0.330729,0.13345 -0.363802,0 -0.51263,-0.0601 -0.330729,-0.13345 z m 2.397786,-0.006 c 0.190996,-0.0764 0.4192,-0.067 0.507118,0.0209 0.08792,0.0879 -0.06835,0.15046 -0.347265,0.13897 -0.308225,-0.0127 -0.370919,-0.0754 -0.159853,-0.15986 z"
           id="path28145" /><path
           style="fill:#201c00;stroke-width:0.264583"
           d="m 58.445242,140.07834 c 0,-0.50932 0.05445,-0.71768 0.121,-0.46302 0.06655,0.25466 0.06655,0.67138 0,0.92604 -0.06655,0.25467 -0.121,0.0463 -0.121,-0.46302 z"
           id="path28143" /><path
           style="fill:#00161e;stroke-width:0.264583"
           d="m 101.00266,153.94692 c 0.0127,-0.30823 0.0754,-0.37092 0.15985,-0.15985 0.0764,0.19099 0.067,0.4192 -0.0209,0.50712 -0.0879,0.0879 -0.15045,-0.0684 -0.13896,-0.34727 z m -5.709427,-7.51858 c 0.26339,-0.29104 0.538421,-0.52916 0.611182,-0.52916 0.07276,0 -0.08321,0.23812 -0.346599,0.52916 -0.26339,0.29105 -0.538422,0.52917 -0.611182,0.52917 -0.07276,0 0.08321,-0.23812 0.346599,-0.52917 z"
           id="path28141" /><path
           style="fill:#000000;stroke-width:0.264583"
           d="m 100.80248,164.12932 c -3.555741,-0.59339 -7.438682,-2.77145 -10.632348,-5.96398 -1.071457,-1.07108 -2.001335,-1.94741 -2.066393,-1.94741 -0.06506,0 -0.676698,0.42648 -1.359191,0.94773 -0.682496,0.52125 -2.074336,1.34602 -3.092982,1.83282 -4.907018,2.34501 -9.88586,2.41868 -15.359858,0.22729 l -1.646998,-0.65934 -4.026413,2.01657 c -2.214527,1.10911 -4.081063,1.96191 -4.147857,1.89512 -0.06679,-0.0668 0.239988,-2.10511 0.681739,-4.52959 l 0.803184,-4.40815 -1.275023,-1.63779 c -2.629084,-3.3771 -3.940387,-6.65955 -4.188146,-10.48375 -0.164009,-2.53151 0.373424,-5.89698 1.265156,-7.92257 0.280413,-0.63696 0.509842,-1.20674 0.509842,-1.26617 0,-0.0594 -0.542825,-0.34074 -1.206278,-0.62513 -3.84054,-1.64625 -8.16001,-5.53567 -9.766127,-8.7938 -1.983197,-4.02307 -1.685777,-7.37171 0.915638,-10.30913 4.57633,-5.16741 17.990988,-6.73533 30.176905,-3.52711 0.59626,0.15698 0.791665,0.005 1.708473,-1.32582 2.231885,-3.2406 6.568488,-5.40618 10.825938,-5.40618 h 1.40767 l 0.136816,-3.505728 c 0.157845,-4.044601 0.895046,-6.994295 2.525591,-10.105403 1.145678,-2.185975 1.984388,-2.77268 3.1589,-2.209751 0.398857,0.191167 0.890651,0.692791 1.092877,1.11472 0.336987,0.703099 0.306727,0.890654 -0.362463,2.246549 -1.871707,3.792413 -2.821048,8.468295 -2.361078,11.629223 l 0.244012,1.67687 1.529236,0.62001 c 2.085718,0.84563 4.791728,2.69715 6.531518,4.46901 0.87806,0.89424 1.67263,1.47283 2.02265,1.47283 1.02258,0 4.14932,-1.08281 6.21695,-2.15297 1.10707,-0.57299 2.86719,-1.81126 3.91137,-2.75171 1.54861,-1.39476 2.06403,-1.7099 2.79658,-1.7099 1.02981,0 1.99482,0.97685 1.99482,2.01929 0,1.92644 -6.67619,6.58832 -11.37708,7.94444 -0.80037,0.23089 -1.48933,0.44927 -1.53104,0.48529 -0.0417,0.036 0.2162,0.94417 0.57311,2.01813 0.35692,1.07395 0.72773,2.72654 0.82402,3.67243 0.32316,3.17456 -0.87869,6.97849 -2.91807,9.23584 -0.50423,0.55811 -0.91677,1.07978 -0.91677,1.15926 0,0.0795 0.55281,1.07708 1.22847,2.21689 4.80441,8.10482 7.07432,18.27557 5.59985,25.09114 -1.11164,5.13842 -5.37429,8.09653 -10.4472,7.24993 z m 3.69352,-4.30542 c 1.51895,-0.64722 2.53755,-2.18133 2.93918,-4.42671 l 0.17046,-0.95302 -1.74925,-0.43167 c -0.96209,-0.23742 -2.45246,-0.78902 -3.31194,-1.22577 l -1.56268,-0.79409 -0.0115,2.84025 c -0.006,1.56213 -0.10881,3.343 -0.22773,3.95748 -0.11891,0.61448 -0.15341,1.18002 -0.0767,1.25677 0.28552,0.28552 3.00864,0.1268 3.83016,-0.22324 z m -5.28223,-2.17259 c 0.329689,-2.38567 0.0163,-8.09568 -0.626848,-11.4214 -0.316598,-1.63711 -0.651412,-2.97337 -0.744035,-2.96945 -0.09262,0.004 -0.466061,0.49335 -0.829863,1.08763 -1.033655,1.68852 -3.374591,3.6615 -5.55625,4.68292 -1.091406,0.51098 -2.034952,0.96882 -2.096772,1.01743 -0.250709,0.19713 2.96328,4.55087 4.396642,5.9558 1.568675,1.53755 4.471201,3.46864 4.966152,3.30405 0.151032,-0.0502 0.37197,-0.79586 0.490974,-1.65698 z m -18.566188,-1.7552 c 1.471052,-0.54452 5.252942,-2.88759 5.252942,-3.25445 0,-0.0605 -0.19051,-0.50945 -0.423354,-0.99773 l -0.423355,-0.88779 -2.950083,0.001 c -1.902555,8e-4 -3.605133,-0.16042 -4.794855,-0.45394 -5.467104,-1.34869 -10.39109,-5.31109 -12.959277,-10.42837 -0.923334,-1.8398 -1.732409,-4.41163 -1.732409,-5.50686 0,-0.46795 -0.20359,-0.60461 -1.118685,-0.75094 -1.35424,-0.21655 -1.566767,0.008 -2.360084,2.48874 -0.813752,2.54509 -0.767803,5.88728 0.11575,8.41931 1.905355,5.46025 7.106745,10.13277 13.152603,11.81529 2.150001,0.59832 5.98226,0.3917 8.240807,-0.44432 z m 26.848208,-5.7203 c -0.56393,-7.47025 -5.00289,-17.67349 -9.566754,-21.9898 -1.279036,-1.20966 -1.529927,-1.33683 -2.637359,-1.33683 -2.37562,0 -2.375609,-5.3e-4 -0.124836,4.57533 2.352524,4.78262 4.207317,10.1492 5.048449,14.60696 0.47628,2.52413 0.73829,3.32912 1.2781,3.92683 1.05233,1.1652 3.90062,2.49998 5.41333,2.53682 l 0.76556,0.0186 -0.17649,-2.33795 z m -16.37914,-2.81972 c 2.246048,-1.12365 4.319389,-3.21926 5.296355,-5.35323 l 0.694264,-1.51647 -0.73854,-2.12225 c -0.815265,-2.34273 -4.364093,-9.92746 -4.644972,-9.92746 -0.270851,0 -1.704128,2.08876 -2.45097,3.57187 -1.333106,2.64736 -1.837912,4.81012 -1.976183,8.46667 -0.127617,3.37473 0.213397,5.83397 1.017262,7.336 0.350348,0.65464 0.697018,0.59834 2.802784,-0.45513 z m -8.014084,-7.87306 c 0.221353,-2.34808 0.983938,-5.68957 1.730986,-7.58485 0.306462,-0.7775 0.523071,-1.44338 0.481357,-1.47973 -0.04171,-0.0364 -0.8876,-0.67707 -1.879746,-1.4238 l -1.803902,-1.35771 -1.110007,0.90957 c -1.653638,1.35503 -4.508587,2.95082 -6.726086,3.75959 -1.944775,0.7093 -1.964248,0.72578 -1.804141,1.52631 0.799277,3.99639 5.216392,7.53217 9.44354,7.5593 l 1.487167,0.01 0.180832,-1.91823 z m -13.406254,-10.1215 c 2.267291,-0.53458 4.616129,-1.55794 6.765924,-2.94784 2.764782,-1.7875 5.610037,-4.82355 5.045848,-5.38422 -0.348872,-0.34669 -6.118175,-1.28802 -9.630476,-1.57133 l -3.042708,-0.24542 -1.177132,0.99225 c -2.351522,1.98218 -3.982243,5.36446 -3.982243,8.25958 v 1.29504 l 2.182812,-0.004 c 1.200547,-0.002 2.927636,-0.17952 3.837975,-0.39416 z m -7.667695,-2.01346 c 0.35854,-2.45994 1.215563,-4.5097 2.717023,-6.49838 0.575603,-0.76238 1.046551,-1.44218 1.046551,-1.51067 0,-0.34312 -6.633328,0.50461 -9.392708,1.20037 -2.477336,0.62465 -6.217708,2.02272 -6.217708,2.32406 0,0.6236 3.813368,3.62387 6.085417,4.78787 1.140017,0.58405 4.592936,1.80711 5.171648,1.83185 0.152271,0.007 0.417671,-0.95428 0.589777,-2.1351 z m -10.865578,-6.83406 c 1.006732,-0.4284 2.596777,-0.98572 3.533433,-1.23849 0.936656,-0.25276 1.740305,-0.48525 1.785886,-0.51663 0.04558,-0.0314 -0.430669,-0.58768 -1.058333,-1.23622 -0.627665,-0.64854 -1.56414,-1.89825 -2.081057,-2.77714 l -0.939848,-1.59799 -0.800507,0.33659 c -1.060975,0.4461 -2.676573,1.88433 -3.154145,2.80785 -0.210848,0.40774 -0.38336,1.22109 -0.38336,1.80745 0,1.10329 0.693371,3.1935 1.059358,3.1935 0.114483,0 1.03184,-0.35052 2.038573,-0.77892 z m 31.395578,-1.69091 c 0.196943,-0.78467 -0.206869,-2.21125 -0.817266,-2.88723 -1.21938,-1.35038 -5.965785,-3.06585 -10.916711,-3.94557 -4.035993,-0.71715 -10.252295,-0.7711 -13.644489,-0.11842 -2.988424,0.57499 -3.188591,0.68496 -2.759611,1.51605 0.695283,1.347 2.348381,3.3161 3.389863,4.03785 l 1.092055,0.75679 2.849554,-0.29763 c 5.674398,-0.59268 13.010578,-0.18742 18.195387,1.00515 1.164167,0.26777 2.193058,0.50123 2.286421,0.5188 0.09337,0.0176 0.239525,-0.24603 0.324797,-0.58579 z"
           id="path28137"
           sodipodi:nodetypes="sssssscssscsssssssscscsssssscsssssssssssssssssscssccscssscsssssscsscccssscsscccsscssscccsscsssssssssscssscccscssscssccccsssssscsssssscssssssssssscssss" /></g></g><g
       style="clip-rule:evenodd;fill-rule:evenodd;stroke-linejoin:round;stroke-miterlimit:1.41421"
       id="g28957"
       transform="matrix(0.01529705,0,0,0.01529705,119.57841,108.36651)"
       inkscape:label="ferry"><g
         transform="scale(4.16667)"
         id="g28933">
        <path
   d="m 525.403,293.05 c -131.633,0 -251.228,15.825 -339.77,41.615 v 220.298 c 88.542,25.79 208.137,41.614 339.77,41.614 150.657,0 285.535,-20.729 376.134,-53.402 V 346.457 C 810.938,313.781 676.06,293.05 525.403,293.05 Z"
   style="fill:#8f1e1c;fill-rule:nonzero"
   id="path28903" />
        <path
   d="m 907.423,492.442 c -3.857,-10.663 -4.629,-24.154 -1.361,-37.162 5.85,-23.289 22.421,-36.198 37.013,-28.833 3.618,1.827 6.774,4.731 9.387,8.418 0.239,-0.001 0.478,0 0.715,0.016 0,0 44.552,53.106 3.313,116.003 -0.895,3.569 -76.534,91.718 -94.043,94.524 -11.46,1.836 14.891,-89.998 44.976,-152.966 z"
   style="fill:#8f1e1c;fill-rule:nonzero"
   id="path28905" />
        <path
   d="m 176.479,482.021 c 5.3,-9.63 7.158,-22.788 4.217,-36.425 -5.266,-24.416 -23.91,-41.11 -41.642,-37.285 -4.398,0.948 -8.325,3.072 -11.666,6.098 -0.282,-0.058 -0.564,-0.113 -0.845,-0.153 0,0 -56.292,41.952 -12.057,113.924 0.805,3.741 83.851,108.838 104.311,115.763 13.391,4.532 -11.247,-92.525 -42.318,-161.922 z"
   style="fill:#8f1e1c;fill-rule:nonzero"
   id="path28907" />
        <path
   d="m 97.467,488.066 0.007,0.015 c 0.185,0.145 0.357,0.276 -0.007,-0.015 z"
   style="fill:#e33a25;fill-rule:nonzero"
   id="path28909" />
        <path
   d="m 993.119,412.903 c -0.88,-3.064 -1.756,-6.126 -2.662,-9.162 l 30.683,-44.451 c 3.13,-4.522 3.77,-10.398 1.73,-15.555 -2.04,-5.13 -6.49,-8.81 -11.76,-9.71 l -51.886,-8.805 c -2.008,-4.102 -4.116,-8.142 -6.23,-12.15 l 21.797,-49.903 c 2.243,-5.087 1.769,-10.995 -1.203,-15.608 -2.961,-4.636 -7.99,-7.344 -13.349,-7.133 l -52.656,1.913 c -2.727,-3.55 -5.496,-7.068 -8.322,-10.521 l 12.101,-53.49 c 1.225,-5.433 -0.322,-11.118 -4.103,-15.064 -3.762,-3.932 -9.229,-5.559 -14.426,-4.283 l -51.289,12.608 c -3.321,-2.935 -6.699,-5.833 -10.114,-8.673 l 1.848,-54.914 c 0.198,-5.559 -2.393,-10.841 -6.844,-13.925 -4.446,-3.104 -10.093,-3.573 -14.956,-1.266 l -47.847,22.747 c -3.854,-2.21 -7.728,-4.4 -11.644,-6.517 l -8.455,-54.115 c -0.857,-5.482 -4.385,-10.138 -9.326,-12.265 -4.923,-2.138 -10.568,-1.448 -14.891,1.808 l -42.659,32.007 c -4.2,-1.396 -8.419,-2.733 -12.692,-4.011 L 645.578,21.148 c -1.87,-5.229 -6.181,-9.071 -11.438,-10.151 -5.239,-1.071 -10.63,0.743 -14.263,4.802 L 583.97,55.971 c -4.342,-0.5 -8.685,-0.956 -13.043,-1.332 L 543.204,7.926 c -2.81,-4.732 -7.77,-7.612 -13.116,-7.612 -5.334,0 -10.304,2.88 -13.09,7.612 l -27.733,46.713 c -4.358,0.376 -8.722,0.832 -13.056,1.332 l -35.91,-40.172 c -3.636,-4.059 -9.047,-5.873 -14.268,-4.802 -5.255,1.092 -9.573,4.922 -11.433,10.151 l -18.402,51.317 c -4.26,1.278 -8.481,2.627 -12.691,4.011 L 340.861,44.469 c -4.336,-3.266 -9.98,-3.955 -14.916,-1.808 -4.919,2.127 -8.461,6.783 -9.313,12.265 l -8.461,54.115 c -3.914,2.117 -7.789,4.294 -11.653,6.517 L 248.676,92.811 c -4.858,-2.315 -10.529,-1.838 -14.954,1.266 -4.445,3.084 -7.042,8.366 -6.84,13.925 l 1.835,54.914 c -3.405,2.84 -6.774,5.738 -10.112,8.673 l -51.279,-12.608 c -5.211,-1.265 -10.67,0.351 -14.441,4.283 -3.795,3.946 -5.332,9.631 -4.113,15.064 l 12.079,53.49 c -2.802,3.467 -5.575,6.971 -8.293,10.521 l -52.655,-1.913 c -5.315,-0.157 -10.387,2.497 -13.356,7.133 -2.975,4.613 -3.425,10.521 -1.211,15.608 l 21.814,49.903 c -2.119,4.008 -4.224,8.048 -6.249,12.15 l -51.883,8.805 c -5.271,0.888 -9.714,4.566 -11.764,9.71 -2.037,5.157 -1.376,11.033 1.735,15.555 l 30.69,44.451 c -0.237,0.784 -0.455,1.576 -0.69,2.364 l -16.863,17.912 45.341,64.049 c 0,0 435.152,200.732 838.797,3.396 46.108,-8.273 56.855,-78.559 56.855,-78.559 z"
   style="fill:#e43a25;fill-rule:nonzero"
   id="path28911" />
        <path
   d="m 608.303,376.759 c 0,0 48.157,-52.729 96.315,0 0,0 37.84,70.312 0,105.463 0,0 -61.917,49.217 -96.315,0 0,0 -41.279,-38.672 0,-105.463 z"
   style="fill:#030404;fill-rule:nonzero"
   id="path28913" />
        <path
   d="m 664.057,396.32 c 0,20.533 -12.103,37.179 -27.03,37.179 -14.924,0 -27.027,-16.646 -27.027,-37.179 0,-20.532 12.103,-37.18 27.027,-37.18 14.927,0 27.03,16.648 27.03,37.18 z"
   style="fill:#ffffff;fill-rule:nonzero"
   id="path28915" />
        <path
   d="m 393.365,362.361 c 0,0 82.608,-36.576 105.154,45.062 0,0 23.618,95.154 -67.837,100.525 0,0 -116.622,-22.462 -37.317,-145.587 z"
   style="fill:#030404;fill-rule:nonzero"
   id="path28917" />
        <path
   d="m 434.855,397.668 c 0,21.173 -12.48,38.346 -27.877,38.346 -15.391,0 -27.874,-17.173 -27.874,-38.346 0,-21.178 12.483,-38.346 27.874,-38.346 15.397,0 27.877,17.168 27.877,38.346 z"
   style="fill:#ffffff;fill-rule:nonzero"
   id="path28919" />
        <path
   d="m 111.602,499.216 c 10.967,-12.463 37.611,-27.557 35.57,-46.282 -3.653,-33.527 -31.456,-57.999 -62.099,-54.659 -7.6,0.828 -14.658,3.292 -20.924,7.036 -0.462,-0.107 -0.925,-0.211 -1.388,-0.294 0,0 -103.631,50.873 -44.564,152.657 0.557,5.137 117.848,155.668 150.788,167.131 21.559,7.502 -19.911,-128.64 -57.383,-225.589 z"
   style="fill:#e43a25;fill-rule:nonzero"
   id="path28921" />
        <path
   d="m 953.549,494.673 c -12.693,-10.7 -46.162,-20.418 -46.92,-39.238 -1.356,-33.698 22.512,-62.021 53.312,-63.26 7.638,-0.308 14.984,1.083 21.735,3.857 0.442,-0.174 0.884,-0.346 1.329,-0.497 0,0 110.025,34.951 66.695,144.366 0.21,5.163 -93.468,171.416 -124.345,187.635 -20.209,10.615 5.506,-131.431 28.194,-232.863 z"
   style="fill:#e43a25;fill-rule:nonzero"
   id="path28923" />
        <path
   d="m 191.142,495.558 c 0,0 -1.383,137.296 133.166,167.932 l 28.054,-56.363 c 0,0 -97.495,9.431 -104.995,-111.569 z"
   style="fill:#e43a25;fill-rule:nonzero"
   id="path28925" />
        <path
   d="m 876.362,495.558 c 0,0 1.382,137.296 -133.167,167.932 l -28.054,-56.363 c 0,0 97.495,9.431 104.995,-111.569 z"
   style="fill:#e43a25;fill-rule:nonzero"
   id="path28927" />
        <path
   d="m 779.167,635.591 c -20.25,-48.942 -85.595,-68.373 -145.951,-43.4 -53.126,21.981 -84.637,71.032 -77.624,115.845 41.946,-0.652 86.94,-3.371 130.736,-9.718 0,0 -25.837,41.763 -63.857,78.211 25.566,6.599 55.383,4.768 84.076,-7.104 60.357,-24.973 92.87,-84.893 72.62,-133.834 z"
   style="fill:#e43a25;fill-rule:nonzero"
   id="path28929" />
        <path
   d="m 404.746,695.984 c 0,0 55.203,7.295 130.67,9.156 6.61,-47.511 -29.38,-97.792 -86.801,-117.243 -63.438,-21.488 -128.989,2.792 -146.414,54.232 -17.425,51.44 19.876,110.56 83.314,132.049 28.121,9.526 56.653,10.049 81.229,3.207 -36.911,-36.505 -61.998,-81.401 -61.998,-81.401 z"
   style="fill:#e43a25;fill-rule:nonzero"
   id="path28931" />
    </g></g><path
       style="display:none;fill:none;fill-opacity:1;stroke:#000000;stroke-width:12.0666;stroke-dasharray:none;stroke-opacity:1"
       d="m 122.08385,211.69335 c 58.27128,-50.26296 76.25105,-71.43884 81.17643,-95.60647 1.40439,-6.89088 1.43108,-18.599782 0.0559,-24.484642 -3.09852,-13.25917 -11.65264,-24.301307 -23.58277,-30.441874 -13.98017,-7.195753 -30.59486,-6.302813 -44.67393,2.400956 -3.4853,2.154625 -16.18176,14.786784 -22.31883,22.205739 l -3.20807,3.87821 -3.22059,-3.87821 C 98.880061,76.817574 88.140911,66.227404 83.761439,63.529395 75.768295,58.605176 67.945107,56.357287 58.800754,56.357287 c -16.718718,0 -32.438808,10.137222 -39.592511,25.531561 -3.399587,7.315666 -4.519263,12.72885 -4.478843,21.653352 0.135359,29.91993 15.691824,50.42362 81.814411,107.83351 6.973699,6.05478 12.760959,11.0289 12.860569,11.05351 0.0996,0.0248 5.80536,-4.80649 12.67946,-10.73587 z"
       id="path24464"
       inkscape:label="heart"
       sodipodi:nodetypes="sscssscsssscscss" /><text
       xml:space="preserve"
       style="font-weight:bold;font-size:28.1223px;line-height:1.25;font-family:'Roboto Mono for Powerline';-inkscape-font-specification:'Roboto Mono for Powerline Bold';letter-spacing:0px;word-spacing:0px;stroke-width:0.329557"
       x="103.17724"
       y="142.58052"
       id="text28962"><tspan
         sodipodi:role="line"
         id="tspan28960"
         style="stroke-width:0.329557"
         x="103.17724"
         y="142.58052">+</tspan></text></g></svg>
